# xmcd
#
# Track frame offsets:
#	150
#	14561
#	29588
#	46869
#	64215
#	77888
#	92109
#	106992
#	126487
#	147778
#	165626
#
# Disc length: 2361 seconds
#
# Revision: 0
# Processed by: cddbd v1.5.1PL0 Copyright (c) Steve Scherf et al.
# Submitted via: dBpowerAMP V4.0
#
DISCID=9709370b
DTITLE=Mama´s Blues Joint - Mama´s Blues Joint
DYEAR=2004
DGENRE=Blues
TTITLE0=Happy Dude
TTITLE1=This Ain´t Love
TTITLE2=Missing You
TTITLE3=How Many Times
TTITLE4=Mama Told Me
TTITLE5=The Love I Gave You
TTITLE6=My Heart Will Speak
TTITLE7=Spoonful
TTITLE8=No Exception To The Rule
TTITLE9=Every Day It´s Getting Better
TTITLE10=Burning Desire
EXTD=
EXTT0=
EXTT1=
EXTT2=
EXTT3=
EXTT4=
EXTT5=
EXTT6=
EXTT7=
EXTT8=
EXTT9=
EXTT10=
PLAYORDER=
